<svg id="Circle" xmlns="http://www.w3.org/2000/svg" viewBox="0 0 640 640">
  <defs>
    <style>
      .cls-1 {
        fill: none;
      }

      .cls-2 {
        fill: #000aff;
      }
    </style>
  </defs>
  <title>icon</title>
  <rect id="Viewbox" class="cls-1" width="640" height="640"/>
  <path id="Outer" class="cls-2" d="M320,608A288,288,0,0,1,32,320H96A224,224,0,1,0,320,96V32A288,288,0,0,1,523.65,523.65,286.11,286.11,0,0,1,320,608Z" transform="translate(0 0)"/>
  <path id="Inner" class="cls-2" d="M320,98a221.3,221.3,0,1,1-86.41,17.45A220.61,220.61,0,0,1,320,98m0-2C196.29,96,96,196.29,96,320S196.29,544,320,544,544,443.71,544,320,443.71,96,320,96h0Z" transform="translate(0 0)"/>
</svg>
