<?xml version="1.0" encoding="utf-8"?>
<!-- Generator: Adobe Illustrator 19.1.0, SVG Export Plug-In . SVG Version: 6.00 Build 0)  -->
<!DOCTYPE svg PUBLIC "-//W3C//DTD SVG 1.1//EN" "http://www.w3.org/Graphics/SVG/1.1/DTD/svg11.dtd">
<svg version="1.1" id="Lager_1" xmlns="http://www.w3.org/2000/svg" xmlns:xlink="http://www.w3.org/1999/xlink" x="0px" y="0px"
	 viewBox="0 0 500 500" style="enable-background:new 0 0 500 500;" xml:space="preserve">
<style type="text/css">
	.st0{fill:#007FFF;}
</style>
<circle class="st0" cx="250" cy="250" r="51.9"/>
<path class="st0" d="M250,35c29,0,57.2,5.6,83.7,16.9c25.6,10.8,48.6,26.3,68.4,46c19.7,19.7,35.3,42.7,46,68.4
	C459.3,192.8,465,221,465,250s-5.6,57.2-16.9,83.7c-10.8,25.6-26.3,48.6-46,68.4c-19.7,19.7-42.7,35.3-68.4,46
	C307.2,459.3,279,465,250,465s-57.2-5.6-83.7-16.9c-25.6-10.8-48.6-26.3-68.4-46c-19.7-19.7-35.3-42.7-46-68.4
	C40.6,307.2,35,279,35,250s5.6-57.2,16.9-83.7c10.8-25.6,26.3-48.6,46-68.4c19.7-19.7,42.7-35.3,68.4-46C192.8,40.6,221,35,250,35
	 M250,25C125.7,25,25,125.7,25,250s100.7,225,225,225s225-100.7,225-225S374.3,25,250,25L250,25z"/>
</svg>
