<?xml version="1.0" encoding="utf-8"?>
<!-- Generator: Adobe Illustrator 19.1.0, SVG Export Plug-In . SVG Version: 6.00 Build 0)  -->
<!DOCTYPE svg PUBLIC "-//W3C//DTD SVG 1.1//EN" "http://www.w3.org/Graphics/SVG/1.1/DTD/svg11.dtd">
<svg version="1.1" id="Lager_1" xmlns="http://www.w3.org/2000/svg" xmlns:xlink="http://www.w3.org/1999/xlink" x="0px" y="0px"
	 viewBox="0 0 500 500" style="enable-background:new 0 0 500 500;" xml:space="preserve">
<style type="text/css">
	.st0{fill:#007FFF;}
</style>
<circle class="st0" cx="250" cy="250" r="51.9"/>
<path class="st0" d="M250,10c32.4,0,63.8,6.3,93.4,18.9c28.6,12.1,54.2,29.4,76.3,51.4c22,22,39.4,47.7,51.4,76.3
	c12.5,29.6,18.9,61,18.9,93.4s-6.3,63.8-18.9,93.4c-12.1,28.6-29.4,54.2-51.4,76.3c-22,22-47.7,39.4-76.3,51.4
	c-29.6,12.5-61,18.9-93.4,18.9s-63.8-6.3-93.4-18.9c-28.6-12.1-54.2-29.4-76.3-51.4c-22-22-39.4-47.7-51.4-76.3
	C16.3,313.8,10,282.4,10,250s6.3-63.8,18.9-93.4c12.1-28.6,29.4-54.2,51.4-76.3c22-22,47.7-39.4,76.3-51.4
	C186.2,16.3,217.6,10,250,10 M250,0C111.9,0,0,111.9,0,250s111.9,250,250,250s250-111.9,250-250S388.1,0,250,0L250,0z"/>
</svg>
